# xmcd
#
# Track frame offsets: 
#        150
#        5317
#        26029
#        49335
#        68971
#        90669
#        112725
#        134302
#        156154
#        178559
#        199063
#        222184
#        242656
#        262673
#
# Disc length: 3788 seconds
#
# Revision: 0
# Processed by: cddbd v1.5.2PL0 Copyright (c) Steve Scherf et al.
# Submitted via: ExactAudioCopy v0.95a5
#
DISCID=b50eca0e
DTITLE=Let's Jam - Blues and Rock Vol 3
DYEAR=2007
DGENRE=Blues
TTITLE0=Tuning
TTITLE1=Bump In The Road in A
TTITLE2=Beck And Forth in G
TTITLE3=In The Swing in Bb
TTITLE4=Cup O' Joe in E
TTITLE5=Over The Weather in C
TTITLE6=Would Chuck? in Am
TTITLE7=Hot'lantis in G
TTITLE8=Key To The "A" Way
TTITLE9=Runaway Escalator
TTITLE10=Rainy Day Blues in Gm
TTITLE11=Two Keys Lounge
TTITLE12=Eleven Twenty-Five
TTITLE13=Dipstick Blues in G
EXTD=
EXTT0=
EXTT1=
EXTT2=
EXTT3=
EXTT4=
EXTT5=
EXTT6=
EXTT7=
EXTT8=
EXTT9=
EXTT10=
EXTT11=
EXTT12=
EXTT13=
PLAYORDER=
